<?xml version="1.0" encoding="iso-8859-1"?>
<!-- Generator: Adobe Illustrator 19.0.0, SVG Export Plug-In . SVG Version: 6.00 Build 0)  -->
<svg version="1.1" id="Capa_1" xmlns="http://www.w3.org/2000/svg" xmlns:xlink="http://www.w3.org/1999/xlink" x="0px" y="0px"
	 viewBox="0 0 511.999 511.999" style="enable-background:new 0 0 511.999 511.999;" xml:space="preserve">
<g>
	<g>
		<path d="M147.782,104.21c-30.656,0-55.597,24.94-55.597,55.597c0,30.657,24.94,55.597,55.597,55.597
			c30.657,0,55.597-24.94,55.597-55.597S178.438,104.21,147.782,104.21z M147.782,200.403c-22.385,0-40.597-18.212-40.597-40.597
			c0-22.385,18.211-40.597,40.597-40.597c22.386,0,40.597,18.211,40.597,40.597C188.379,182.191,170.167,200.403,147.782,200.403z"
			/>
	</g>
</g>
<g>
	<g>
		<path d="M131.75,152.307h-0.08c-4.142,0-7.46,3.357-7.46,7.5c0,4.142,3.398,7.5,7.54,7.5c4.142,0,7.5-3.358,7.5-7.5
			C139.25,155.664,135.892,152.307,131.75,152.307z"/>
	</g>
</g>
<g>
	<g>
		<path d="M163.814,152.307h-0.08c-4.142,0-7.46,3.357-7.46,7.5c0,4.142,3.398,7.5,7.54,7.5c4.142,0,7.5-3.358,7.5-7.5
			C171.314,155.664,167.957,152.307,163.814,152.307z"/>
	</g>
</g>
<g>
	<g>
		<path d="M147.782,232.468c-30.656,0-55.597,24.94-55.597,55.597c0,30.657,24.94,55.597,55.597,55.597
			c30.657,0,55.597-24.94,55.597-55.597S178.438,232.468,147.782,232.468z M147.782,328.661c-22.385,0-40.597-18.211-40.597-40.597
			c0-22.385,18.211-40.597,40.597-40.597c22.386,0,40.597,18.212,40.597,40.597C188.379,310.45,170.167,328.661,147.782,328.661z"/>
	</g>
</g>
<g>
	<g>
		<path d="M131.75,280.564h-0.08c-4.142,0-7.46,3.358-7.46,7.5c0,4.142,3.398,7.5,7.54,7.5c4.142,0,7.5-3.358,7.5-7.5
			C139.25,283.922,135.892,280.564,131.75,280.564z"/>
	</g>
</g>
<g>
	<g>
		<path d="M163.814,280.564h-0.08c-4.142,0-7.46,3.358-7.46,7.5c0,4.142,3.398,7.5,7.54,7.5c4.142,0,7.5-3.358,7.5-7.5
			C171.314,283.922,167.957,280.564,163.814,280.564z"/>
	</g>
</g>
<g>
	<g>
		<path d="M147.782,360.726c-30.656,0-55.597,24.941-55.597,55.597s24.94,55.597,55.597,55.597
			c30.657,0,55.597-24.941,55.597-55.597C203.379,385.667,178.438,360.726,147.782,360.726z M147.782,456.919
			c-22.385,0-40.597-18.211-40.597-40.597c0-22.385,18.211-40.597,40.597-40.597c22.386,0,40.597,18.212,40.597,40.597
			C188.379,438.708,170.167,456.919,147.782,456.919z"/>
	</g>
</g>
<g>
	<g>
		<path d="M131.75,408.822h-0.08c-4.142,0-7.46,3.358-7.46,7.5c0,4.143,3.398,7.5,7.54,7.5c4.142,0,7.5-3.357,7.5-7.5
			C139.25,412.181,135.892,408.822,131.75,408.822z"/>
	</g>
</g>
<g>
	<g>
		<path d="M163.814,408.822h-0.08c-4.142,0-7.46,3.358-7.46,7.5c0,4.143,3.398,7.5,7.54,7.5c4.142,0,7.5-3.357,7.5-7.5
			C171.314,412.181,167.957,408.822,163.814,408.822z"/>
	</g>
</g>
<g>
	<g>
		<path d="M179.847,40.081h-64.129c-8.556,0-15.516,6.96-15.516,15.516v16.032c0,8.556,6.96,15.517,15.516,15.517h64.129
			c8.556,0,15.516-6.961,15.516-15.517V55.597C195.363,47.041,188.403,40.081,179.847,40.081z M140.282,72.146h-24.564
			c-0.285,0-0.516-0.232-0.516-0.517V55.597c0-0.285,0.231-0.516,0.516-0.516h24.564V72.146z M180.363,71.629
			c0,0.285-0.231,0.517-0.516,0.517h-24.564V55.081h24.564c0.284,0,0.516,0.231,0.516,0.516V71.629z"/>
	</g>
</g>
<g>
	<g>
		<path d="M436.363,184.371h-8.532V151.79c0-4.142-3.358-7.5-7.5-7.5c-4.142,0-7.5,3.358-7.5,7.5v32.581h-17.064V151.79
			c0-4.142-3.358-7.5-7.5-7.5c-4.142,0-7.5,3.358-7.5,7.5v32.581h-8.532c-8.556,0-15.516,6.96-15.516,15.516v16.032
			c0,8.556,6.96,15.516,15.516,15.516h0.516v16.548c0,14.812,10.262,27.265,24.048,30.64v9.44c0,17.965-14.616,32.581-32.581,32.581
			c-17.965,0-32.581-14.616-32.581-32.581V135.758c0-12.976-10.557-23.532-23.532-23.532c-12.975,0-23.532,10.557-23.532,23.532
			v304.613c0,4.705-3.828,8.532-8.532,8.532c-4.704,0-8.532-3.828-8.532-8.532V55.597c0-12.976-10.557-23.532-23.533-23.532h-8.532
			v-0.516C235.443,14.152,221.291,0,203.895,0H91.669C74.273,0,60.121,14.152,60.121,31.548v448.903
			c0,17.396,14.152,31.548,31.548,31.548h112.226c17.396,0,31.548-14.153,31.548-31.548V103.69c0-4.142-3.358-7.5-7.5-7.5
			c-4.142,0-7.5,3.358-7.5,7.5v376.761c0,9.125-7.423,16.548-16.548,16.548H91.669c-9.125,0-16.548-7.424-16.548-16.548V31.548
			C75.121,22.424,82.544,15,91.669,15h112.226c9.125,0,16.548,7.424,16.548,16.548v40.084c0,4.142,3.358,7.5,7.5,7.5
			c4.142,0,7.5-3.358,7.5-7.5V47.064h8.532c4.705,0,8.533,3.828,8.533,8.532V440.37c0,12.976,10.557,23.532,23.532,23.532
			c12.975,0,23.532-10.556,23.532-23.532V135.758c0-4.704,3.828-8.532,8.532-8.532c4.704,0,8.532,3.828,8.532,8.532v152.307
			c0,26.236,21.345,47.581,47.581,47.581c26.236,0,47.581-21.345,47.581-47.581v-9.44c13.786-3.375,24.048-15.829,24.048-30.64
			v-16.548h0.516c8.556,0,15.516-6.96,15.516-15.516v-16.032C451.879,191.332,444.918,184.371,436.363,184.371z M420.848,247.984
			L420.848,247.984c-0.001,9.125-7.424,16.548-16.549,16.548s-16.548-7.424-16.548-16.548v-16.548h33.097V247.984z M436.879,215.919
			c0,0.285-0.231,0.516-0.516,0.516h-64.129c-0.285,0-0.516-0.231-0.516-0.516v-16.032c0-0.285,0.231-0.516,0.516-0.516h64.129
			c0.285,0,0.516,0.231,0.516,0.516V215.919z"/>
	</g>
</g>
<g>
</g>
<g>
</g>
<g>
</g>
<g>
</g>
<g>
</g>
<g>
</g>
<g>
</g>
<g>
</g>
<g>
</g>
<g>
</g>
<g>
</g>
<g>
</g>
<g>
</g>
<g>
</g>
<g>
</g>
</svg>
