<svg id="Capa_1" enable-background="new 0 0 512 512" height="512" viewBox="0 0 512 512" width="512" xmlns="http://www.w3.org/2000/svg"><g><path d="m467 196h-15v-45c0-41.355-33.645-75-75-75h-242c-41.355 0-75 33.645-75 75v45h-15c-24.813 0-45 20.187-45 45 0 19.556 12.539 36.239 30 42.43v152.57h81.213l30-30h229.574l30 30h81.213v-152.57c17.461-6.191 30-22.874 30-42.43 0-24.813-20.187-45-45-45zm-332-90h242c24.813 0 45 20.187 45 45v47.58c-17.459 6.192-30 22.865-30 42.42v15h-272v-15c0-19.555-12.541-36.228-30-42.42v-47.58c0-24.813 20.187-45 45-45zm-15 180h272v30h-272zm347-30h-15v150h-38.787l-30-30h-254.426l-30 30h-38.787v-150h-15c-8.271 0-15-6.729-15-15s6.729-15 15-15h30c8.271 0 15 6.729 15 15v105h332v-105c0-8.271 6.729-15 15-15h30c8.271 0 15 6.729 15 15s-6.729 15-15 15z"/><path d="m181 136h30v30h-30z" transform="matrix(.707 -.707 .707 .707 -49.366 182.82)"/><path d="m241 136h30v30h-30z" transform="matrix(.707 -.707 .707 .707 -31.793 225.246)"/><path d="m301 136h30v30h-30z" transform="matrix(.707 -.707 .707 .707 -14.219 267.673)"/><path d="m181 196h30v30h-30z" transform="matrix(.707 -.707 .707 .707 -91.793 200.393)"/><path d="m241 196h30v30h-30z" transform="matrix(.707 -.707 .707 .707 -74.219 242.82)"/><path d="m301 196h30v30h-30z" transform="matrix(.707 -.707 .707 .707 -56.645 285.246)"/></g></svg>