<?xml version="1.0" encoding="iso-8859-1"?>
<!-- Generator: Adobe Illustrator 19.0.0, SVG Export Plug-In . SVG Version: 6.00 Build 0)  -->
<svg version="1.1" id="Capa_1" xmlns="http://www.w3.org/2000/svg" xmlns:xlink="http://www.w3.org/1999/xlink" x="0px" y="0px"
	 viewBox="0 0 512.002 512.002" style="enable-background:new 0 0 512.002 512.002;" xml:space="preserve">
<g>
	<g>
		<path d="M399.803,228.622c-6.503-14.272-21.987-26.345-41.419-32.294c-0.201-0.062-0.404-0.115-0.61-0.159
			c-14.309-3.096-31.921-5.723-52.53-7.847c17.164-7.447,34.805-19.929,46.026-40.845c9.579-16.857,11.42-40.428,4.801-61.544
			c-5.575-17.786-16.025-31.099-29.424-37.484c-0.06-0.028-0.119-0.056-0.179-0.082c-11.386-5.062-23.04-5.169-33.705-0.309
			c-14.27,6.504-26.341,21.986-32.291,41.416c-0.062,0.201-0.114,0.404-0.159,0.609c-3.098,14.316-5.729,31.931-7.853,52.548
			c-7.418-17.088-19.881-34.799-40.839-46.043c-16.855-9.579-40.423-11.421-61.54-4.804c-17.789,5.575-31.103,16.025-37.49,29.426
			c-0.028,0.06-0.056,0.12-0.083,0.18c-5.061,11.386-5.167,23.042-0.306,33.706c6.504,14.269,21.986,26.339,41.415,32.288
			c0.203,0.063,0.406,0.116,0.612,0.16c14.311,3.096,31.922,5.725,52.534,7.849c-17.145,7.44-34.803,19.917-46.03,40.842
			c-9.581,16.857-11.422,40.427-4.804,61.542c5.575,17.788,16.025,31.1,29.426,37.487c0.06,0.028,0.119,0.056,0.179,0.082
			c5.812,2.585,11.693,3.877,17.479,3.877c5.547,0,11.007-1.189,16.228-3.568c14.27-6.504,26.341-21.987,32.289-41.417
			c0.062-0.201,0.115-0.404,0.159-0.61c3.096-14.309,5.722-31.921,7.847-52.53c7.465,17.215,19.95,34.816,40.844,46.026
			c10.15,5.769,22.73,8.731,35.748,8.73c8.601,0,17.393-1.294,25.794-3.927c17.788-5.575,31.101-16.025,37.487-29.425
			c0.028-0.059,0.056-0.119,0.082-0.179C404.554,250.94,404.662,239.286,399.803,228.622z M274.906,93.57
			c4.671-15.02,13.878-27.213,24.078-31.862c6.713-3.06,13.877-2.95,21.297,0.324c9.414,4.526,17.238,14.867,21.476,28.388
			c5.424,17.304,4.057,36.353-3.567,49.713c-0.034,0.059-0.067,0.119-0.099,0.179c-12.356,23.095-34.626,34.07-53.021,39.285
			c-3.544-8.373-10.606-14.902-19.32-17.741C268.034,134.178,271.11,111.21,274.906,93.57z M157.715,172.951
			c-15.02-4.67-27.213-13.876-31.862-24.075c-3.06-6.712-2.951-13.878,0.323-21.299c4.528-9.415,14.87-17.239,28.393-21.478
			c17.303-5.423,36.35-4.055,49.708,3.569c0.06,0.034,0.119,0.067,0.18,0.099c23.183,12.404,34.121,34.831,39.281,53.021
			c-8.371,3.544-14.9,10.606-17.738,19.319C198.315,179.821,175.355,176.745,157.715,172.951z M237.094,290.143
			c-4.668,15.022-13.875,27.214-24.075,31.863c-6.712,3.06-13.876,2.951-21.3-0.325c-9.415-4.527-17.239-14.868-21.477-28.389
			c-5.423-17.304-4.056-36.352,3.569-49.711c0.034-0.06,0.067-0.12,0.099-0.18c12.367-23.114,34.675-34.083,53.02-39.285
			c3.545,8.373,10.608,14.904,19.323,17.742C243.966,249.549,240.889,272.5,237.094,290.143z M256.001,208.406
			c-9.125,0-16.55-7.424-16.55-16.549s7.424-16.549,16.55-16.549c9.125,0,16.549,7.424,16.549,16.549
			S265.126,208.406,256.001,208.406z M385.825,256.137c-4.527,9.415-14.868,17.24-28.391,21.478
			c-17.304,5.423-36.352,4.056-49.71-3.568c-0.06-0.034-0.12-0.067-0.18-0.099c-23.041-12.328-34.035-34.499-39.283-53.021
			c8.372-3.545,14.902-10.608,17.74-19.322c27.691,2.286,50.641,5.364,68.285,9.159c15.024,4.67,27.218,13.878,31.866,24.079
			C389.21,241.554,389.1,248.718,385.825,256.137z"/>
	</g>
</g>
<g>
	<g>
		<path d="M379.346,44.927C342.732,14.125,296.151-1.776,248.172,0.158c-48.266,1.945-93.671,21.84-127.851,56.02
			c-34.18,34.18-54.075,79.585-56.02,127.851c-1.933,47.975,13.966,94.56,44.768,131.174c1.483,1.764,3.606,2.672,5.743,2.672
			c1.704,0,3.418-0.578,4.824-1.761c3.17-2.666,3.578-7.397,0.911-10.567c-28.387-33.745-43.04-76.687-41.258-120.915
			c1.792-44.488,20.131-86.341,51.638-117.848s73.36-49.846,117.849-51.638c44.221-1.786,87.168,12.87,120.914,41.259
			c3.17,2.667,7.901,2.259,10.567-0.911C382.924,52.325,382.516,47.594,379.346,44.927z"/>
	</g>
</g>
<g>
	<g>
		<path d="M402.931,68.512c-2.666-3.169-7.397-3.578-10.567-0.911s-3.578,7.398-0.911,10.567
			c28.389,33.745,43.042,76.686,41.259,120.914c-1.792,44.489-20.131,86.341-51.639,117.848
			c-31.507,31.507-73.359,49.846-117.848,51.639c-44.228,1.776-87.169-12.871-120.914-41.259c-3.169-2.667-7.9-2.258-10.567,0.911
			s-2.259,7.901,0.911,10.567c26.468,22.267,58.149,36.734,91.796,42.318v69.44l-46.306,11.577
			c-10.496,2.624-17.826,12.012-17.826,22.831v11.531c0,8.556,6.961,15.517,15.517,15.517h160.33
			c8.556,0,15.517-6.961,15.517-15.517v-11.531c0-10.818-7.33-20.207-17.826-22.831l-46.307-11.577v-69.43
			c39.284-6.502,75.615-25.064,104.13-53.58c34.18-34.18,54.075-79.585,56.02-127.851
			C449.633,151.711,433.734,105.126,402.931,68.512z M239.451,383.001c5.485,0.472,11.008,0.713,16.556,0.713
			c2.603,0,5.21-0.053,7.822-0.158c2.918-0.118,5.825-0.304,8.721-0.552v65.898h-33.099V383.001z M330.217,476.676
			c3.807,0.95,6.465,4.355,6.465,8.278v11.531c0,0.285-0.232,0.517-0.517,0.517h-160.33c-0.285,0-0.517-0.231-0.517-0.517v-11.531
			c0-3.923,2.658-7.327,6.463-8.278l51.091-12.773h46.254L330.217,476.676z"/>
	</g>
</g>
<g>
</g>
<g>
</g>
<g>
</g>
<g>
</g>
<g>
</g>
<g>
</g>
<g>
</g>
<g>
</g>
<g>
</g>
<g>
</g>
<g>
</g>
<g>
</g>
<g>
</g>
<g>
</g>
<g>
</g>
</svg>
